<svg width="16" height="16" viewBox="0 0 16 16" fill="none" xmlns="http://www.w3.org/2000/svg">
<path fill-rule="evenodd" clip-rule="evenodd" d="M7.59038 0.806935C7.83112 0.619693 8.16823 0.619693 8.40897 0.806935L14.409 5.4736C14.5714 5.59991 14.6663 5.79411 14.6663 5.99984V13.3331C14.6663 13.8636 14.4556 14.3723 14.0806 14.7473C13.7055 15.1224 13.1968 15.3331 12.6663 15.3331H3.33301C2.80257 15.3331 2.29387 15.1224 1.91879 14.7473C1.54372 14.3723 1.33301 13.8636 1.33301 13.3331V5.99984C1.33301 5.79411 1.42799 5.59991 1.59038 5.4736L7.59038 0.806935ZM2.66634 6.3259V13.3331C2.66634 13.5099 2.73658 13.6795 2.8616 13.8045C2.98663 13.9296 3.1562 13.9998 3.33301 13.9998H12.6663C12.8432 13.9998 13.0127 13.9296 13.1377 13.8045C13.2628 13.6795 13.333 13.5099 13.333 13.3331V6.3259L7.99967 2.17775L2.66634 6.3259Z" fill="white"/>
<path fill-rule="evenodd" clip-rule="evenodd" d="M5.33301 8.00017C5.33301 7.63198 5.63148 7.3335 5.99967 7.3335H9.99967C10.3679 7.3335 10.6663 7.63198 10.6663 8.00017V14.6669C10.6663 15.0351 10.3679 15.3335 9.99967 15.3335C9.63148 15.3335 9.33301 15.0351 9.33301 14.6669V8.66684H6.66634V14.6669C6.66634 15.0351 6.36786 15.3335 5.99967 15.3335C5.63148 15.3335 5.33301 15.0351 5.33301 14.6669V8.00017Z" fill="white"/>
</svg>
